<svg width="16" height="16" viewBox="0 0 16 16" fill="none" xmlns="http://www.w3.org/2000/svg">
<path d="M8.00004 1.33337C4.32004 1.33337 1.33337 4.32004 1.33337 8.00004C1.33337 11.68 4.32004 14.6667 8.00004 14.6667C11.68 14.6667 14.6667 11.68 14.6667 8.00004C14.6667 4.32004 11.68 1.33337 8.00004 1.33337ZM8.94004 12.06V12.4467C8.94004 12.9334 8.54004 13.3334 8.05337 13.3334H8.04671C7.56004 13.3334 7.16004 12.9334 7.16004 12.4467V12.0467C6.27337 11.86 5.48671 11.3734 5.15337 10.5534C5.00004 10.1867 5.28671 9.78004 5.68671 9.78004H5.84671C6.09337 9.78004 6.29337 9.94671 6.38671 10.18C6.58004 10.68 7.08671 11.0267 8.06004 11.0267C9.36671 11.0267 9.66004 10.3734 9.66004 9.96671C9.66004 9.41337 9.36671 8.89337 7.88004 8.54004C6.22671 8.14004 5.09337 7.46004 5.09337 6.09337C5.09337 4.94671 6.02004 4.20004 7.16671 3.95337V3.55337C7.16671 3.06671 7.56671 2.66671 8.05337 2.66671H8.06004C8.54671 2.66671 8.94671 3.06671 8.94671 3.55337V3.96671C9.86671 4.19337 10.4467 4.76671 10.7 5.47337C10.8334 5.84004 10.5534 6.22671 10.16 6.22671H9.98671C9.74004 6.22671 9.54004 6.05337 9.47337 5.81337C9.32004 5.30671 8.90004 4.98004 8.06004 4.98004C7.06004 4.98004 6.46004 5.43337 6.46004 6.07337C6.46004 6.63337 6.89337 7.00004 8.24004 7.34671C9.58671 7.69337 11.0267 8.27337 11.0267 9.95337C11.0134 11.1734 10.1 11.84 8.94004 12.06Z" fill="white"/>
</svg>
