<svg width="16" height="16" viewBox="0 0 16 16" fill="none" xmlns="http://www.w3.org/2000/svg">
<path d="M15.3333 5.33335V12C15.3333 12.7334 14.7333 13.3334 14 13.3334H3.33329C2.96663 13.3334 2.66663 13.0334 2.66663 12.6667C2.66663 12.3 2.96663 12 3.33329 12H14V5.33335C14 4.96669 14.3 4.66669 14.6666 4.66669C15.0333 4.66669 15.3333 4.96669 15.3333 5.33335ZM2.66663 10.6667C1.55996 10.6667 0.666626 9.77335 0.666626 8.66669V4.66669C0.666626 3.56002 1.55996 2.66669 2.66663 2.66669H10.6666C11.7733 2.66669 12.6666 3.56002 12.6666 4.66669V9.33335C12.6666 10.0667 12.0666 10.6667 11.3333 10.6667H2.66663ZM4.66663 6.66669C4.66663 7.77335 5.55996 8.66669 6.66663 8.66669C7.77329 8.66669 8.66663 7.77335 8.66663 6.66669C8.66663 5.56002 7.77329 4.66669 6.66663 4.66669C5.55996 4.66669 4.66663 5.56002 4.66663 6.66669Z" fill="#8226F1"/>
</svg>
