<svg width="16" height="16" viewBox="0 0 16 16" fill="none" xmlns="http://www.w3.org/2000/svg">
<path d="M7.38867 2.12001V13.88C7.38867 14.3067 6.99534 14.6267 6.58201 14.5333C3.60201 13.8667 1.38867 11.1933 1.38867 8.00001C1.38867 4.80667 3.60201 2.13334 6.58201 1.46667C6.99534 1.37334 7.38867 1.69334 7.38867 2.12001ZM8.74201 2.12001V6.66001C8.74201 7.02667 9.04201 7.32667 9.40867 7.32667H13.9353C14.362 7.32667 14.682 6.93334 14.5887 6.51334C14.022 4.00667 12.0553 2.03334 9.55534 1.46667C9.13534 1.37334 8.74201 1.69334 8.74201 2.12001ZM8.74201 9.34001V13.88C8.74201 14.3067 9.13534 14.6267 9.55534 14.5333C12.062 13.9667 14.0287 11.9867 14.5953 9.48001C14.6887 9.06667 14.362 8.66667 13.942 8.66667H9.41534C9.04201 8.67334 8.74201 8.97334 8.74201 9.34001Z" fill="#8226F1"/>
</svg>
