<svg width="16" height="16" viewBox="0 0 16 16" fill="none" xmlns="http://www.w3.org/2000/svg">
<path d="M9.33333 6.00004H6.66667C6.3 6.00004 6 5.70004 6 5.33337C6 4.96671 6.3 4.66671 6.66667 4.66671H9.33333C9.7 4.66671 10 4.96671 10 5.33337C10 5.70004 9.7 6.00004 9.33333 6.00004Z" fill="#8226F1"/>
<path d="M9.33333 8.00004H6.66667C6.3 8.00004 6 7.70004 6 7.33337C6 6.96671 6.3 6.66671 6.66667 6.66671H9.33333C9.7 6.66671 10 6.96671 10 7.33337C10 7.70004 9.7 8.00004 9.33333 8.00004Z" fill="#8226F1"/>
<path d="M13 2.33337L12 1.33337L11 2.33337L10 1.33337L9 2.33337L8 1.33337L7 2.33337L6 1.33337L5 2.33337L4 1.33337V10.6667H2.66667C2.3 10.6667 2 10.9667 2 11.3334V12.6667C2 13.7734 2.89333 14.6667 4 14.6667H12C13.1067 14.6667 14 13.7734 14 12.6667V1.33337L13 2.33337ZM10 13.3334H4C3.63333 13.3334 3.33333 13.0334 3.33333 12.6667V12H10V13.3334ZM12.6667 12.6667C12.6667 13.0334 12.3667 13.3334 12 13.3334C11.6333 13.3334 11.3333 13.0334 11.3333 12.6667V11.3334C11.3333 10.9667 11.0333 10.6667 10.6667 10.6667H5.33333V3.33337H12.6667V12.6667Z" fill="#8226F1"/>
<path d="M11.3333 6.00004C11.7015 6.00004 12 5.70156 12 5.33337C12 4.96518 11.7015 4.66671 11.3333 4.66671C10.9651 4.66671 10.6667 4.96518 10.6667 5.33337C10.6667 5.70156 10.9651 6.00004 11.3333 6.00004Z" fill="#8226F1"/>
<path d="M11.3333 8.00004C11.7015 8.00004 12 7.70156 12 7.33337C12 6.96518 11.7015 6.66671 11.3333 6.66671C10.9651 6.66671 10.6667 6.96518 10.6667 7.33337C10.6667 7.70156 10.9651 8.00004 11.3333 8.00004Z" fill="#8226F1"/>
</svg>
