<svg width="16" height="16" viewBox="0 0 16 16" fill="none" xmlns="http://www.w3.org/2000/svg">
<path d="M12 5.26336H10.6666C10.3 5.26336 9.99996 5.56336 9.99996 5.93003C9.99996 6.29669 10.3 6.59669 10.6666 6.59669H12V13.93H3.99996V6.59669H5.33329C5.69996 6.59669 5.99996 6.29669 5.99996 5.93003C5.99996 5.56336 5.69996 5.26336 5.33329 5.26336H3.99996C3.26663 5.26336 2.66663 5.86336 2.66663 6.59669V13.93C2.66663 14.6634 3.26663 15.2634 3.99996 15.2634H12C12.7333 15.2634 13.3333 14.6634 13.3333 13.93V6.59669C13.3333 5.86336 12.7333 5.26336 12 5.26336Z" fill="white"/>
<path d="M7.99996 10.5967C8.36663 10.5967 8.66663 10.2967 8.66663 9.93003V3.26336H9.85996C10.16 3.26336 10.3066 2.90336 10.0933 2.69669L8.23329 0.836694C8.09996 0.703361 7.89329 0.703361 7.75996 0.836694L5.89996 2.69669C5.69329 2.90336 5.83996 3.26336 6.13996 3.26336H7.33329V9.93003C7.33329 10.2967 7.63329 10.5967 7.99996 10.5967Z" fill="white"/>
</svg>
