<svg width="48" height="48" viewBox="0 0 48 48" fill="none" xmlns="http://www.w3.org/2000/svg">
<g clip-path="url(#clip0_82_74)">
<path d="M38.625 0H9.375C4.19733 0 0 4.19733 0 9.375V38.625C0 43.8027 4.19733 48 9.375 48H38.625C43.8027 48 48 43.8027 48 38.625V9.375C48 4.19733 43.8027 0 38.625 0Z" fill="#5D10BA"/>
<path d="M43.8036 15.1215L36.3113 33.3504H35.8993L32.166 26.6561L28.4068 33.3504H28.0208L20.5026 15.1215H24.3131L28.6643 25.8838L31.9599 19.962H32.3462L35.6419 25.8838L39.993 15.1215H43.8036ZM31.9599 19.1379L29.7458 15.1215H34.5863L32.3462 19.1379H31.9599Z" fill="white"/>
<path d="M12.8018 29.9261C13.3854 29.9261 13.9346 29.8573 14.4496 29.7201C14.9645 29.5656 15.4194 29.3511 15.8142 29.0764C16.2261 28.7846 16.5523 28.4241 16.7926 27.9951C17.0329 27.5659 17.1702 27.0596 17.2045 26.4759L20.8864 25.1113C20.8691 26.5532 20.646 27.7976 20.217 28.8446C19.7878 29.8746 19.2043 30.7241 18.4661 31.3937C17.7281 32.0631 16.8527 32.5609 15.8399 32.8869C14.8444 33.1959 13.763 33.3504 12.5958 33.3504C11.4973 33.3504 10.433 33.1616 9.40316 32.784C8.39044 32.3891 7.48929 31.8056 6.69971 31.0331C5.91013 30.2608 5.28362 29.2995 4.82018 28.1496C4.35673 26.9824 4.125 25.6264 4.125 24.0814C4.125 22.6054 4.35673 21.2921 4.82018 20.1422C5.28362 18.9921 5.90154 18.0223 6.67397 17.2327C7.46355 16.4431 8.36469 15.8424 9.37742 15.4304C10.4073 15.0185 11.4887 14.8125 12.6215 14.8125C13.5999 14.8125 14.5183 14.9498 15.3765 15.2245C16.2519 15.4991 17.0415 15.9196 17.7452 16.4861C18.4661 17.0353 19.0926 17.7305 19.6247 18.5716C20.1568 19.3956 20.5774 20.3653 20.8864 21.4809H16.9728C16.6467 20.4512 16.0802 19.653 15.2735 19.0866C14.4839 18.5029 13.5742 18.2111 12.5443 18.2111C11.9264 18.2111 11.3342 18.3313 10.7678 18.5716C10.2185 18.7946 9.72071 19.1466 9.27443 19.6271C8.84531 20.1079 8.502 20.7172 8.24454 21.4552C7.98707 22.1932 7.85833 23.0687 7.85833 24.0814C7.85833 25.077 7.99566 25.9438 8.27029 26.682C8.54492 27.42 8.91396 28.0294 9.37742 28.5099C9.84086 28.9905 10.3644 29.3511 10.948 29.5913C11.5487 29.8146 12.1667 29.9261 12.8018 29.9261ZM12.5186 23.3606H20.8864V24.0814L12.5186 27.0681V23.3606Z" fill="white"/>
</g>
<defs>
<clipPath id="clip0_82_74">
<rect width="48" height="48" fill="white"/>
</clipPath>
</defs>
</svg>
