<svg width="1094" height="191" viewBox="0 0 1094 191" fill="none" xmlns="http://www.w3.org/2000/svg">
<path d="M1066.84 114.185H1093C1091.9 121.243 1088.92 127.541 1084.08 133.077C1079.37 138.613 1072.93 142.973 1064.77 146.157C1056.6 149.34 1046.64 150.932 1034.87 150.932C1021.72 150.932 1010.1 148.855 999.994 144.703C989.891 140.413 982.002 134.254 976.327 126.226C970.652 118.198 967.815 108.51 967.815 97.1607C967.815 85.8114 970.583 76.1229 976.119 68.0954C981.656 59.9294 989.337 53.7011 999.164 49.4105C1009.13 45.1199 1020.76 42.9746 1034.04 42.9746C1047.61 42.9746 1058.89 45.1199 1067.88 49.4105C1076.88 53.7011 1083.52 60.2062 1087.81 68.9258C1092.24 77.507 1094.11 88.5103 1093.42 101.936H995.012C995.704 107.195 997.642 111.97 1000.82 116.261C1004.15 120.551 1008.58 123.942 1014.11 126.434C1019.79 128.925 1026.5 130.171 1034.25 130.171C1042.83 130.171 1049.96 128.717 1055.63 125.811C1061.45 122.766 1065.18 118.89 1066.84 114.185ZM1032.8 63.528C1022.83 63.528 1014.73 65.7425 1008.51 70.1715C1002.28 74.4621 998.264 79.7907 996.465 86.1574H1066.64C1065.94 79.2371 1062.62 73.77 1056.67 69.7562C1050.86 65.6041 1042.9 63.528 1032.8 63.528Z" fill="#5801C2"/>
<path d="M886.824 132.662C875.614 132.662 865.717 131.001 857.136 127.679C848.694 124.219 842.119 119.167 837.413 112.524C832.708 105.88 830.355 97.8527 830.355 88.4411C830.355 79.1679 832.638 71.1403 837.206 64.3584C841.773 57.5765 848.278 52.317 856.721 48.5801C865.302 44.8431 875.337 42.9746 886.824 42.9746C890.008 42.9746 893.053 43.1822 895.959 43.5974C899.004 44.0127 901.98 44.5663 904.886 45.2583L956.996 45.4659V65.8117C949.938 65.9501 942.741 65.1196 935.405 63.3203C928.208 61.3826 921.841 59.3066 916.305 57.092L915.682 55.6388C920.388 57.8533 924.817 60.6214 928.969 63.9432C933.121 67.1265 936.443 70.8635 938.934 75.1541C941.564 79.3063 942.879 84.1505 942.879 89.6868C942.879 98.6832 940.595 106.434 936.028 112.939C931.46 119.306 924.955 124.219 916.513 127.679C908.208 131.001 898.312 132.662 886.824 132.662ZM921.495 191V186.018C921.495 179.651 919.419 175.222 915.267 172.731C911.253 170.239 905.717 168.994 898.658 168.994H866.479C860.25 168.994 854.991 168.509 850.7 167.54C846.548 166.571 843.226 165.187 840.735 163.388C838.244 161.589 836.445 159.444 835.337 156.952C834.23 154.599 833.676 152.039 833.676 149.271C833.676 143.734 835.476 139.582 839.074 136.814C842.673 133.908 847.517 131.97 853.607 131.001C859.697 130.032 866.41 129.825 873.745 130.378L886.824 132.662C878.105 132.939 871.6 133.7 867.309 134.946C863.157 136.053 861.081 138.337 861.081 141.797C861.081 143.873 861.911 145.534 863.572 146.779C865.233 147.887 867.586 148.44 870.631 148.44H904.471C913.744 148.44 921.634 149.409 928.139 151.347C934.782 153.423 939.834 156.814 943.294 161.52C946.754 166.364 948.484 172.938 948.484 181.243V191H921.495ZM886.824 113.147C892.776 113.147 897.966 112.178 902.395 110.24C906.963 108.302 910.492 105.534 912.983 101.936C915.475 98.1987 916.72 93.7697 916.72 88.6487C916.72 83.3893 915.475 78.8911 912.983 75.1541C910.492 71.4171 907.032 68.5798 902.603 66.6421C898.174 64.566 892.914 63.528 886.824 63.528C880.873 63.528 875.614 64.566 871.046 66.6421C866.479 68.5798 862.949 71.4171 860.458 75.1541C857.967 78.8911 856.721 83.3893 856.721 88.6487C856.721 93.7697 857.967 98.1987 860.458 101.936C862.949 105.534 866.41 108.302 870.839 110.24C875.406 112.178 880.735 113.147 886.824 113.147Z" fill="#5801C2"/>
<path d="M735.549 150.724C725.306 150.724 715.964 148.509 707.521 144.08C699.217 139.513 692.573 133.216 687.591 125.188C682.746 117.022 680.324 107.61 680.324 96.9531C680.324 86.019 682.816 76.5381 687.798 68.5106C692.781 60.483 699.494 54.2547 707.936 49.8257C716.518 45.2583 726.206 42.9746 737.002 42.9746C748.905 42.9746 758.455 45.3967 765.652 50.2409C772.987 54.9468 778.316 61.3827 781.638 69.5486C784.96 77.7146 786.62 86.8494 786.62 96.9531C786.62 103.043 785.652 109.271 783.714 115.638C781.776 121.866 778.8 127.679 774.787 133.077C770.773 138.337 765.513 142.627 759.008 145.949C752.503 149.132 744.683 150.724 735.549 150.724ZM744.268 129.963C752.434 129.963 759.493 128.579 765.444 125.811C771.396 123.043 775.963 119.167 779.146 114.185C782.33 109.202 783.922 103.458 783.922 96.9531C783.922 89.8944 782.261 83.9429 778.939 79.0987C775.756 74.116 771.188 70.3791 765.237 67.8878C759.424 65.258 752.434 63.9432 744.268 63.9432C732.78 63.9432 723.853 66.9881 717.486 73.078C711.12 79.0295 707.936 86.9878 707.936 96.9531C707.936 103.597 709.459 109.41 712.504 114.392C715.549 119.236 719.77 123.043 725.168 125.811C730.704 128.579 737.071 129.963 744.268 129.963ZM783.922 45.2583H810.911V148.44H785.79C785.79 148.44 785.582 147.125 785.167 144.496C784.89 141.728 784.614 138.267 784.337 134.115C784.06 129.963 783.922 125.88 783.922 121.866V45.2583Z" fill="#5801C2"/>
<path d="M619.325 129.752L610.813 129.545L644.446 45.2554H674.134L628.668 148.437H603.339L570.122 65.1859H579.257L545.001 148.437H519.673L475.452 45.2554H505.14L537.527 129.752H529.015L559.326 45.2554H590.26L619.325 129.752Z" fill="#5801C2"/>
<path d="M380.342 150.724C369.961 150.724 360.55 148.509 352.107 144.08C343.802 139.513 337.228 133.215 332.384 125.188C327.54 117.022 325.117 107.61 325.117 96.953C325.117 86.0189 327.47 76.5381 332.176 68.5105C337.02 60.4829 343.595 54.2546 351.899 49.8256C360.203 45.2582 369.684 42.9745 380.342 42.9745C389.615 42.9745 397.504 44.3586 404.009 47.1267C410.514 49.8948 415.774 53.7702 419.787 58.7528C423.801 63.5971 426.708 69.2717 428.507 75.7768C430.445 82.2819 431.414 89.3406 431.414 96.953C431.414 103.043 430.445 109.271 428.507 115.638C426.569 121.866 423.594 127.679 419.58 133.077C415.566 138.336 410.307 142.627 403.801 145.949C397.296 149.132 389.476 150.724 380.342 150.724ZM389.061 129.963C397.227 129.963 404.286 128.579 410.237 125.811C416.189 123.043 420.756 119.167 423.94 114.185C427.123 109.202 428.715 103.458 428.715 96.953C428.715 89.8943 427.054 83.9428 423.732 79.0986C420.549 74.1159 415.981 70.3098 410.03 67.6801C404.217 65.0503 397.227 63.7355 389.061 63.7355C377.573 63.7355 368.646 66.7804 362.28 72.8703C355.913 78.9602 352.73 86.9877 352.73 96.953C352.73 103.596 354.252 109.41 357.297 114.392C360.342 119.236 364.563 123.043 369.961 125.811C375.497 128.579 381.864 129.963 389.061 129.963ZM428.715 3.73633H455.704V148.44H430.583C430.168 145.257 429.753 141.174 429.337 136.191C428.922 131.07 428.715 126.295 428.715 121.866V3.73633Z" fill="#5801C2"/>
<path d="M305.483 0V23.6675H274.134V0H305.483ZM276.21 45.2589H303.199V148.441H276.21V45.2589Z" fill="#5801C2"/>
<path d="M191.222 45.2583H218.211V148.44H191.222V45.2583ZM257.864 67.4725C250.114 67.4725 243.401 68.995 237.726 72.0399C232.052 74.9465 227.484 78.545 224.024 82.8356C220.564 87.1262 218.142 91.2784 216.758 95.2922L216.55 83.8737C216.688 82.2128 217.242 79.7907 218.211 76.6074C219.18 73.2856 220.633 69.7562 222.571 66.0193C224.508 62.1439 227.069 58.4761 230.252 55.016C233.436 51.4174 237.311 48.5109 241.878 46.2964C246.446 44.0819 251.774 42.9746 257.864 42.9746V67.4725Z" fill="#5801C2"/>
<path d="M82.2134 151.133C69.7568 151.133 58.4767 149.68 48.373 146.773C38.4078 143.866 29.7574 139.507 22.4218 133.694C15.2247 127.881 9.68844 120.683 5.81307 112.102C1.93769 103.521 0 93.625 0 82.4141C0 71.0647 2.00689 61.0303 6.02068 52.3107C10.1729 43.4527 15.9859 35.9787 23.4599 29.8889C31.0722 23.799 40.0686 19.2316 50.4491 16.1866C60.968 13.0033 72.5941 11.4116 85.3275 11.4116C100.414 11.4116 113.424 13.5569 124.358 17.8475C135.292 21.9997 143.873 27.882 150.102 35.4943C156.468 43.1067 160.067 52.1723 160.897 62.6912H134.323C132.524 57.1549 129.548 52.3799 125.396 48.3661C121.382 44.2139 116.054 41.0306 109.41 38.8161C102.767 36.4632 94.7391 35.2867 85.3275 35.2867C73.2862 35.2867 62.9749 37.2244 54.3937 41.0998C45.9509 44.9752 39.515 50.4422 35.086 57.5009C30.657 64.5597 28.4425 72.864 28.4425 82.4141C28.4425 91.6873 30.3802 99.7149 34.2556 106.497C38.1309 113.14 44.0824 118.261 52.11 121.86C60.276 125.458 70.6564 127.258 83.2514 127.258C92.9399 127.258 101.452 126.012 108.787 123.521C116.261 120.891 122.49 117.431 127.472 113.14C132.455 108.711 135.984 103.798 138.06 98.4L148.856 94.4554C147.057 112.31 140.275 126.22 128.51 136.185C116.884 146.15 101.452 151.133 82.2134 151.133ZM141.797 148.434C141.797 144.143 142.074 139.23 142.628 133.694C143.181 128.019 143.873 122.344 144.704 116.67C145.534 110.857 146.296 105.528 146.988 100.684H85.5351V83.0369H165.672V148.434H141.797Z" fill="#5801C2"/>
</svg>
