<svg width="48" height="48" viewBox="0 0 48 48" fill="none" xmlns="http://www.w3.org/2000/svg">
<g clip-path="url(#clip0_289_2473)">
<path d="M41.8537 21.7031C41.9509 22.4648 41.9997 23.232 42 23.9999C42.0028 27.3633 41.0625 30.66 39.2859 33.5158C37.5094 36.3716 34.9677 38.6721 31.9495 40.1561C28.9313 41.6401 25.5575 42.2482 22.2111 41.9113C18.8647 41.5743 15.6799 40.3059 13.0181 38.2499C17.7412 37.0949 23.2968 34.7006 28.4756 31.7249C33.9956 28.5543 38.655 25.0237 41.8537 21.7031ZM45.9581 11.3774C44.5237 8.90432 40.7381 8.34745 34.9893 9.7537C32.3279 7.69577 29.1426 6.42553 25.7954 6.08726C22.4481 5.74899 19.0731 6.35625 16.0537 7.84007C13.0343 9.32389 10.4916 11.6248 8.71441 14.4813C6.93722 17.3379 5.99679 20.6357 5.99996 23.9999C6.0002 24.7716 6.04904 25.5425 6.14621 26.3081C0.954336 31.6874 1.02934 34.8749 2.04371 36.6224C2.99996 38.2799 4.99496 38.9999 7.61996 38.9999C9.4425 38.9622 11.2543 38.7105 13.0181 38.2499C12.051 37.5023 11.1615 36.6593 10.3631 35.7337C7.12121 36.2737 5.11309 35.9212 4.63871 35.1168C4.36496 34.6462 4.51684 33.7593 5.05496 32.6793C5.58704 31.6678 6.2338 30.721 6.98246 29.8574C6.98334 29.8519 6.98334 29.8462 6.98246 29.8406V29.8556C7.72658 32.0086 8.87177 34.0012 10.3575 35.7281C14.2837 35.0737 20.0118 33.1199 26.9756 29.1187C32.25 26.0981 37.875 21.8756 41.0231 18.1537C40.2818 15.9977 39.1363 14.0027 37.6481 12.2756L37.6237 12.2474C37.6237 12.2568 37.6406 12.2643 37.6481 12.2756C40.3125 11.8349 42.78 11.8687 43.3668 12.8831C43.5393 13.1774 43.5543 13.6181 43.395 14.1956C43.0781 15.3787 42.2343 16.7324 41.0268 18.1574C41.4239 19.3092 41.7022 20.4985 41.8575 21.7068C44.2012 19.2693 45.7612 16.9537 46.2918 14.9718C46.6556 13.5956 46.545 12.3881 45.9581 11.3774Z" fill="#1D1E1C"/>
</g>
<g style="mix-blend-mode:color-dodge">
<circle cx="30" cy="30" r="18" fill="#CFA9FE"/>
</g>
<defs>
<clipPath id="clip0_289_2473">
<rect width="48" height="48" fill="white"/>
</clipPath>
</defs>
</svg>
