<svg width="48" height="48" viewBox="0 0 48 48" fill="none" xmlns="http://www.w3.org/2000/svg">
<g clip-path="url(#clip0_289_2471)">
<path d="M26.9998 14.9998C26.9998 14.602 27.1578 14.2204 27.4391 13.9391C27.7204 13.6578 28.102 13.4998 28.4998 13.4998H46.4998C46.8976 13.4998 47.2791 13.6578 47.5604 13.9391C47.8417 14.2204 47.9998 14.602 47.9998 14.9998C47.9998 15.3976 47.8417 15.7792 47.5604 16.0605C47.2791 16.3418 46.8976 16.4998 46.4998 16.4998H28.4998C28.102 16.4998 27.7204 16.3418 27.4391 16.0605C27.1578 15.7792 26.9998 15.3976 26.9998 14.9998ZM46.4998 22.4998H28.4998C28.102 22.4998 27.7204 22.6578 27.4391 22.9391C27.1578 23.2204 26.9998 23.602 26.9998 23.9998C26.9998 24.3976 27.1578 24.7792 27.4391 25.0605C27.7204 25.3418 28.102 25.4998 28.4998 25.4998H46.4998C46.8976 25.4998 47.2791 25.3418 47.5604 25.0605C47.8417 24.7792 47.9998 24.3976 47.9998 23.9998C47.9998 23.602 47.8417 23.2204 47.5604 22.9391C47.2791 22.6578 46.8976 22.4998 46.4998 22.4998ZM46.4998 31.4998H32.9998C32.602 31.4998 32.2204 31.6578 31.9391 31.9391C31.6578 32.2204 31.4998 32.602 31.4998 32.9998C31.4998 33.3976 31.6578 33.7792 31.9391 34.0605C32.2204 34.3418 32.602 34.4998 32.9998 34.4998H46.4998C46.8976 34.4998 47.2791 34.3418 47.5604 34.0605C47.8417 33.7792 47.9998 33.3976 47.9998 32.9998C47.9998 32.602 47.8417 32.2204 47.5604 31.9391C47.2791 31.6578 46.8976 31.4998 46.4998 31.4998ZM20.4917 26.6248C21.9803 25.4782 23.0728 23.8943 23.6158 22.0954C24.1588 20.2965 24.1251 18.3727 23.5195 16.5939C22.9139 14.8151 21.7667 13.2704 20.2387 12.1766C18.7108 11.0828 16.8789 10.4946 14.9998 10.4946C13.1207 10.4946 11.2887 11.0828 9.76082 12.1766C8.23291 13.2704 7.08569 14.8151 6.48005 16.5939C5.87442 18.3727 5.84074 20.2965 6.38375 22.0954C6.92676 23.8943 8.01921 25.4782 9.5079 26.6248C5.64165 28.2617 2.59478 31.556 1.54665 35.6248C1.48941 35.8465 1.48368 36.0784 1.52992 36.3027C1.57616 36.5269 1.67313 36.7377 1.8134 36.9187C1.95367 37.0997 2.13352 37.2461 2.33917 37.3469C2.54481 37.4476 2.77079 37.4999 2.99978 37.4998H26.9998C27.2288 37.4999 27.4547 37.4476 27.6604 37.3469C27.866 37.2461 28.0459 37.0997 28.1862 36.9187C28.3264 36.7377 28.4234 36.5269 28.4696 36.3027C28.5159 36.0784 28.5102 35.8465 28.4529 35.6248C27.4048 31.5542 24.3579 28.2598 20.4917 26.6248Z" fill="#1D1E1C"/>
</g>
<g style="mix-blend-mode:color-dodge">
<circle cx="30" cy="30" r="18" fill="#CFA9FE"/>
</g>
<defs>
<clipPath id="clip0_289_2471">
<rect width="48" height="48" fill="white"/>
</clipPath>
</defs>
</svg>
