<svg width="20" height="20" viewBox="0 0 20 20" fill="none" xmlns="http://www.w3.org/2000/svg">
<path d="M18.3334 10.0001C18.3334 14.6025 14.6024 18.3334 10 18.3334M18.3334 10.0001C18.3334 5.39771 14.6024 1.66675 10 1.66675M18.3334 10.0001H1.66669M10 18.3334C5.39765 18.3334 1.66669 14.6025 1.66669 10.0001M10 18.3334C7.86022 16.0866 6.66669 13.1028 6.66669 10.0001C6.66669 6.89736 7.86022 3.91354 10 1.66675M10 18.3334C12.1398 16.0866 13.3334 13.1028 13.3334 10.0001C13.3334 6.89736 12.1398 3.91354 10 1.66675M1.66669 10.0001C1.66669 5.39771 5.39765 1.66675 10 1.66675" stroke="white" stroke-width="1.25" stroke-linecap="round" stroke-linejoin="round"/>
</svg>
