<svg width="80" height="80" viewBox="0 0 80 80" fill="none" xmlns="http://www.w3.org/2000/svg">
<path d="M34.7716 5.73853C37.5771 2.65928 42.4229 2.65928 45.2284 5.73853V5.73853C47.0895 7.78123 49.9697 8.553 52.6028 7.71452V7.71452C56.5721 6.45056 60.7686 8.87342 61.6586 12.9429V12.9429C62.249 15.6425 64.3575 17.751 67.0571 18.3414V18.3414C71.1266 19.2314 73.5494 23.4279 72.2855 27.3972V27.3972C71.447 30.0303 72.2188 32.9105 74.2615 34.7716V34.7716C77.3407 37.5771 77.3407 42.4229 74.2615 45.2284V45.2284C72.2188 47.0895 71.447 49.9697 72.2855 52.6028V52.6028C73.5494 56.5721 71.1266 60.7686 67.0571 61.6586V61.6586C64.3575 62.249 62.249 64.3575 61.6586 67.0571V67.0571C60.7686 71.1266 56.5721 73.5494 52.6028 72.2855V72.2855C49.9697 71.447 47.0895 72.2188 45.2284 74.2615V74.2615C42.4229 77.3407 37.5771 77.3407 34.7716 74.2615V74.2615C32.9105 72.2188 30.0303 71.447 27.3972 72.2855V72.2855C23.4279 73.5494 19.2314 71.1266 18.3414 67.0571V67.0571C17.751 64.3575 15.6425 62.249 12.9429 61.6586V61.6586C8.87342 60.7686 6.45056 56.5721 7.71452 52.6028V52.6028C8.553 49.9697 7.78123 47.0895 5.73853 45.2284V45.2284C2.65928 42.4229 2.65928 37.5771 5.73853 34.7716V34.7716C7.78123 32.9105 8.553 30.0303 7.71452 27.3972V27.3972C6.45056 23.4279 8.87342 19.2314 12.9429 18.3414V18.3414C15.6425 17.751 17.751 15.6425 18.3414 12.9429V12.9429C19.2314 8.87342 23.4279 6.45056 27.3972 7.71452V7.71452C30.0303 8.553 32.9105 7.78123 34.7716 5.73853V5.73853Z" fill="#8226F1"/>
<path d="M64.2389 29.3756L55.1299 51.5379H54.6291L50.0903 43.3992L45.5199 51.5379H45.0506L35.9102 29.3756H40.5429L45.8329 42.4602L49.8397 35.2606H50.3093L54.3161 42.4602L59.6061 29.3756H64.2389ZM49.8397 34.2587L47.1478 29.3756H53.0327L50.3093 34.2587H49.8397Z" fill="white"/>
<path d="M26.549 47.3747C27.2585 47.3747 27.9263 47.2911 28.5524 47.1242C29.1784 46.9364 29.7314 46.6756 30.2114 46.3416C30.7122 45.9869 31.1088 45.5486 31.4009 45.027C31.6931 44.5052 31.86 43.8897 31.9018 43.1801L36.378 41.521C36.3571 43.274 36.0858 44.787 35.5642 46.0599C35.0424 47.3121 34.333 48.3449 33.4356 49.159C32.5382 49.9728 31.4739 50.578 30.2427 50.9744C29.0323 51.3501 27.7176 51.5379 26.2986 51.5379C24.963 51.5379 23.6692 51.3084 22.4171 50.8493C21.1858 50.3692 20.0902 49.6598 19.1303 48.7206C18.1703 47.7817 17.4086 46.6129 16.8452 45.2148C16.2817 43.7958 16 42.1472 16 40.2689C16 38.4744 16.2817 36.8778 16.8452 35.4797C17.4086 34.0814 18.1599 32.9024 19.099 31.9425C20.0589 30.9825 21.1545 30.2521 22.3858 29.7513C23.6379 29.2504 24.9526 29 26.3299 29C27.5194 29 28.6358 29.167 29.6793 29.5008C30.7435 29.8347 31.7035 30.346 32.5591 31.0347C33.4356 31.7025 34.1972 32.5476 34.8441 33.5702C35.4911 34.572 36.0024 35.751 36.378 37.1073H31.62C31.2235 35.8554 30.5349 34.885 29.5541 34.1963C28.5941 33.4867 27.4881 33.132 26.236 33.132C25.4847 33.132 24.7647 33.278 24.0761 33.5702C23.4083 33.8414 22.8031 34.2692 22.2605 34.8535C21.7388 35.438 21.3214 36.1788 21.0084 37.0761C20.6954 37.9733 20.5389 39.0377 20.5389 40.2689C20.5389 41.4793 20.7058 42.5332 21.0397 43.4306C21.3736 44.3279 21.8223 45.0687 22.3858 45.653C22.9492 46.2372 23.5857 46.6756 24.2952 46.9676C25.0256 47.2391 25.7769 47.3747 26.549 47.3747ZM26.2047 39.3926H36.378V40.2689L26.2047 43.9V39.3926Z" fill="white"/>
</svg>
