<svg width="280" height="167" viewBox="0 0 280 167" fill="none" xmlns="http://www.w3.org/2000/svg">
<g clip-path="url(#clip0_220_1538)">
<rect width="280" height="167" fill="white"/>
<g filter="url(#filter0_d_220_1538)">
<rect width="280.297" height="167" fill="white"/>
<path d="M99.6689 100.153C98.8647 100.126 98.0738 99.9091 97.3443 99.5171C95.036 98.0435 94.1045 95.3675 92.6385 93.0704L90.3828 93.7815L86.5234 89.5009L82.1214 89.7395L79.3311 88.074L77.4034 89.0097L76.1156 90.7921L74.1839 89.3652L72.4668 90.0763L71.2843 88.6494L71.8229 84.9816L68.1781 84.046L68.0688 81.908L68.9111 81.5711L69.2513 81.4308L69.3849 80.4577L69.6806 78.3384L66.6756 78.577L66.137 81.7864L64.2094 82.2542L62.2776 80.2332L62.5976 75.8355L65.9264 72.0274L70.859 71.5596L72.8839 71.6765L73.3132 73.459L73.2038 75.48C73.2038 75.48 74.0624 76.1958 74.3864 76.0741C74.7103 75.9525 74.9209 75.2461 74.9209 75.2461L74.5038 70.4789L75.4676 69.0754C76.4517 67.6251 78.1445 67.8965 79.3554 66.9421C80.8902 65.7398 80.8335 64.5047 81.0482 62.5351C81.0482 62.5351 81.9067 61.2299 82.7653 60.9913C85.3612 60.2708 87.8882 58.9328 90.4841 58.1048C91.0205 58.0048 91.5124 57.7001 91.8812 57.2393C92.6912 55.9434 89.7065 54.0487 88.9897 53.3797C88.9897 53.3797 90.4922 52.444 91.5654 52.6686C92.6385 52.8931 94.6756 52.9072 94.9995 53.0241C96.1132 53.4265 97.3403 50.7832 97.3848 50.0534C97.5671 47.0593 93.4647 43.4243 91.0308 43.036C86.6611 42.3436 86.082 43.6348 85.3612 48.1493L83.6117 50.6242C83.4825 50.8322 83.3152 51.0048 83.1218 51.1298C82.9283 51.2548 82.7134 51.3291 82.4924 51.3474C82.2713 51.3657 82.0494 51.3276 81.8425 51.2357C81.6357 51.1439 81.4488 51.0006 81.2952 50.816C79.4526 48.4909 75.8321 45.0663 75.9172 44.9166C76.1318 44.4488 79.0274 42.1798 79.0274 42.1798C79.0274 42.1798 82.5668 41.3471 82.9961 41.1132C83.4254 40.8793 85.4665 39.9202 85.4665 39.9202L84.9278 37.0664L83.4254 35.167L83.2107 33.7636L81.3884 34.3577L80.4205 36.1401L80.3152 38.0442L77.6302 37.8056L77.3103 36.0232C77.3103 36.0232 78.1688 34.7132 78.1688 34.3577C78.1688 34.0021 76.5489 33.2864 76.5489 33.2864L73.1147 34.1191C73.1147 34.1191 72.5761 33.7636 72.1469 33.408C71.525 33 70.8796 32.642 70.2151 32.3367L68.5952 33.8805C68.5952 33.8805 68.3806 35.1904 69.0245 35.284C69.7225 35.3234 70.4182 35.1627 71.0494 34.8162C71.4786 34.5776 72.1226 34.2173 72.2319 34.5776C72.3412 34.9378 71.8026 36.7156 71.8026 36.7156L72.0173 38.6196L69.7616 39.3307C68.9619 39.0245 68.1777 38.6669 67.4127 38.2594C66.3233 37.5343 65.161 35.705 63.8489 35.2513C61.9253 34.5823 61.1923 36.2103 59.4712 36.5939C58.9325 36.7109 50.0272 36.3553 50.0272 36.3553L45.0905 36.7109L43.0657 38.3764L37.9144 40.636L38.129 42.4091L35.6627 43.8126L35.9827 45.3564L37.1652 46.7833L36.092 47.8546L31.4753 48.3224L31.37 50.3856L39.4168 48.4909L40.7047 45.8804C41.0489 45.1739 46.273 44.6266 47.0587 44.5611C50.2175 44.2991 50.258 45.6043 51.4405 49.5341C51.9994 51.4054 50.0191 52.7855 52.291 55.5036C49.1605 59.1246 46.2164 63.8731 49.61 68.6029C49.61 68.6029 51.3271 70.9841 51.4365 71.3444C52.052 73.5432 51.0679 74.418 52.5096 76.4578C50.3309 77.2811 52.7931 79.1338 53.9028 79.5408C54.2267 79.6624 55.4052 78.9466 55.4052 78.9466L54.1174 76.6917L53.4735 72.8835L56.0491 78.1186V81.2062L61.7431 85.4495L64.6427 85.3325L66.2626 86.2682L68.5142 86.8623L69.4821 89.7161L71.507 91.2646L73.2241 92.8084L74.6212 91.7371L75.7997 92.5698L75.6944 94.8295L73.4387 97.4446L73.1188 101.725C73.1188 101.725 71.9363 102.914 72.0456 103.269C72.155 103.625 72.0456 105.285 72.1509 105.646C72.8272 107.924 73.0702 110.642 75.2247 111.802C76.1439 112.298 77.1645 112.588 77.9825 113.267C78.7155 113.87 79.0274 115.058 79.6996 115.606C80.1532 115.971 81.1211 115.966 81.4491 116.35C81.5768 116.548 81.6333 116.796 81.607 117.042C81.607 119.812 80.7971 124.265 81.607 126.937C81.9756 128.214 81.2021 130.679 81.4086 132.19C81.7083 134.623 84.0166 139.503 83.4335 141.795C82.5668 145.173 85.9808 147.736 88.2932 149.355C89.1031 149.931 91.9987 151.474 92.2741 149.556C92.428 148.499 90.5894 147.152 89.9819 146.553L88.0542 144.653C88.9087 144.298 89.8766 144.186 89.9819 143.821C90.0872 143.456 89.9819 141.084 89.9819 141.084L88.5888 141.322L89.662 137.397L91.3791 135.021C91.9409 134.823 92.5131 134.667 93.0921 134.553C93.6348 134.553 95.198 131.858 95.3559 131.32C95.5706 130.604 94.8295 130.23 94.9793 129.524C95.441 127.334 98.5674 124.626 98.5674 122.544V120.771C98.5674 120.06 102.868 117.641 103.403 116.794C104.508 115.035 105.569 111.447 106.201 109.416C107.084 106.581 106.468 102.609 104.14 100.794C103.277 100.144 101.386 100.308 99.6689 100.153Z" fill="#D4E0EF"/>
<path d="M87.5965 38.7321C87.5965 38.7321 89.4189 37.0666 89.7389 36.8327C90.0588 36.5988 90.812 36.9496 90.812 36.9496L92.5291 38.4935C92.5291 38.4935 91.8852 39.9204 91.5653 39.9204C90.9178 39.888 90.2727 39.8099 89.6336 39.6864C89.4807 39.6549 89.3232 39.6839 89.1864 39.7689C89.0497 39.8538 88.9418 39.9896 88.8803 40.1543L89.0949 41.0899C89.0949 41.0899 91.2413 41.3238 91.9946 41.4455C92.5893 41.6104 93.1434 41.9305 93.6145 42.3811L94.6876 41.9133C94.6876 41.9133 94.797 40.8467 94.5823 40.4864C94.3677 40.1262 95.6555 40.4864 95.6555 40.4864L97.6804 39.8923L97.895 38.8256L95.4287 38.3578C95.4287 38.3578 95.4287 36.4537 94.8901 36.2151C94.4173 35.9356 93.9832 35.5761 93.6023 35.1485L90.3828 35.3871L89.2043 34.0771L86.3087 34.545L86.5234 36.4444L86.738 37.5157L85.9847 38.9192L87.5965 38.7321Z" fill="#D4E0EF"/>
<path d="M95.7891 31.097C97.2442 30.9667 98.7047 30.9371 100.163 31.0081C100.263 31.0168 100.363 30.9854 100.446 30.9192L102.119 29.5719C102.221 29.5322 102.305 29.4473 102.353 29.3359C102.401 29.2244 102.408 29.0956 102.374 28.9778C102.34 28.8599 102.266 28.7626 102.17 28.7073C102.073 28.6521 101.962 28.6433 101.86 28.683V28.683C101.772 28.6839 101.686 28.6546 101.613 28.5988C101.208 28.2854 99.7578 27.1953 99.4136 27.0175C99.0694 26.8398 93.5941 27.4854 92.4926 27.4854C91.6624 27.4854 91.8528 28.1076 91.9985 28.421C92.0238 28.4832 92.0369 28.5511 92.0369 28.6199C92.0369 28.6886 92.0238 28.7565 91.9985 28.8187L91.3222 30.69C91.2963 30.7658 91.2869 30.8477 91.2949 30.9286C91.3029 31.0096 91.328 31.087 91.368 31.154C91.408 31.2211 91.4618 31.2757 91.5244 31.3131C91.5871 31.3505 91.6567 31.3695 91.7272 31.3684C93.1041 31.3122 94.4446 31.1812 95.7891 31.097Z" fill="#D4E0EF"/>
<path d="M120.991 35.1348C121.193 34.5781 122.295 32.019 122.295 31.6869C122.295 31.3547 123.7 31.1301 124.202 30.9103C124.704 30.6904 123.704 29.3524 123.704 29.3524L121.396 28.8846L119.687 27.2378C116.807 27.3454 113.92 27.1676 111.053 27.5045C110.275 27.5933 109.453 27.598 108.878 28.0705C108.655 28.253 108.194 29.5723 107.947 29.5723C105.33 29.5723 103.208 29.2401 101.625 31.7991C101.625 31.7991 99.6 32.019 99.2153 32.019C98.8306 32.019 99.114 33.2447 99.114 33.2447L101.021 33.5769H104.431L103.731 34.4564C103.731 34.4564 103.326 35.902 103.229 36.4587C103.131 37.0155 105.253 37.0155 105.253 37.0155L103.33 39.1347C102.52 40.0236 102.828 40.468 103.127 40.6879C103.735 41.1558 103.427 42.985 103.601 43.6493C103.982 45.0762 104.893 45.3288 106.124 45.1978C107.894 45.006 108.052 44.0469 108.59 42.3253C108.923 41.254 109.805 40.2949 110.052 39.2423C110.154 38.7979 114.066 39.1347 114.467 39.0224C114.868 38.9102 119.383 37.3523 119.687 37.4646C119.99 37.5768 120.788 35.6915 120.991 35.1348Z" fill="#D4E0EF"/>
<path d="M228.382 67.4473L228.787 61.3655C228.806 61.0268 228.726 60.6906 228.559 60.4112C228.392 60.1318 228.148 59.9258 227.867 59.8264C227.284 59.6065 226.628 59.3071 226.446 59.0077C226.102 58.4322 226.102 56.8977 225.928 56.3223C225.754 55.7469 224.891 53.8334 224.373 54.0253C224.223 54.055 224.07 54.0405 223.927 53.9832C224.17 55.0077 224.332 56.0276 223.976 57.0474C223.751 57.649 223.581 58.2762 223.469 58.9188C223.427 59.1248 223.427 59.3396 223.469 59.5457L223.672 60.5328L224.976 65.6508C225.05 65.9497 225.041 66.2681 224.95 66.5606C224.858 66.853 224.689 67.1044 224.466 67.2789L222.672 68.7245C222.517 68.8451 222.387 69.0038 222.291 69.1892C222.195 69.3745 222.135 69.582 222.117 69.7969C222.098 70.0117 222.121 70.2287 222.183 70.4323C222.246 70.6359 222.346 70.8211 222.477 70.9747L223.056 71.6625C223.315 71.9604 223.664 72.1305 224.029 72.1366C224.394 72.1427 224.747 71.9844 225.012 71.6952L227.981 68.4204C228.216 68.1659 228.359 67.8184 228.382 67.4473V67.4473Z" fill="#D4E0EF"/>
<path d="M216.245 108.715C218.845 108.589 221.291 109.384 223.769 110.165C223.934 110.219 224.109 110.204 224.265 110.123C224.421 110.043 224.548 109.902 224.624 109.726L224.838 109.206C224.884 109.092 224.905 108.967 224.901 108.842C224.897 108.716 224.867 108.593 224.813 108.484C224.76 108.374 224.685 108.281 224.594 108.211C224.503 108.142 224.4 108.098 224.292 108.084L222.984 107.859C222.984 107.859 220.392 106.708 219.873 106.329C219.355 105.95 214.856 106.329 214.856 106.329C214.856 106.329 209.672 103.452 209.324 102.877C208.976 102.301 208.98 100.58 208.98 100.58C208.98 100.58 209.154 97.5153 208.806 96.9398C208.457 96.3644 206.214 94.4463 206.214 94.4463V90.0814C206.22 89.9264 206.268 89.7774 206.351 89.6555C206.434 89.5335 206.548 89.4447 206.677 89.4013C206.806 89.358 206.944 89.3624 207.071 89.4139C207.197 89.4654 207.307 89.5614 207.384 89.6885L208.445 91.4522C208.517 91.5664 208.607 91.6631 208.711 91.7367C208.815 91.8103 208.93 91.8594 209.051 91.8812C209.171 91.9029 209.294 91.8969 209.413 91.8634C209.531 91.8299 209.643 91.7697 209.741 91.6861L210.551 90.9984L211.191 89.7025C211.312 89.4568 211.373 89.1777 211.367 88.895C211.362 88.6123 211.289 88.3367 211.158 88.0978L210.033 86.016C210.033 86.016 209.202 83.8125 209.17 83.719C208.672 82.395 216.46 80.3693 217.468 79.8874C217.468 79.8874 219.023 77.7775 219.023 77.2021C218.954 76.4913 218.839 75.7875 218.679 75.0968C217.95 71.8688 215.512 69.8057 214.872 66.2829C214.702 65.3472 216.087 64.173 216.601 63.9812C217.116 63.7894 218.679 67.0502 218.849 67.6256C219.019 68.201 220.408 68.1963 220.408 68.1963C220.506 67.4354 220.564 66.6683 220.582 65.8993C220.582 64.9636 219.197 63.2186 218.849 62.6245C217.917 61.0572 222.21 57.7263 222.125 55.7661C222.077 54.531 221.493 53.5439 220.87 52.5802L216.083 51.1299L215.565 48.2574C215.565 48.2574 218.505 47.2983 219.023 47.2983C219.731 47.4061 220.433 47.5623 221.125 47.7662C221.341 47.8313 221.567 47.8397 221.787 47.7908C222.006 47.7419 222.213 47.6369 222.393 47.4835C222.573 47.3301 222.721 47.1322 222.826 46.9043C222.931 46.6763 222.99 46.4241 223 46.1662V46.1522C223 45.2165 224.037 45.5814 224.037 45.5814C224.037 45.5814 224.903 46.9194 224.903 47.6866C224.903 48.4539 225.766 50.9615 225.766 50.9615L227.843 51.7287L229.986 52.9778C230.232 53.1254 230.519 53.1552 230.784 53.0606C231.049 52.9661 231.272 52.7549 231.403 52.4726C231.533 52.1786 231.676 51.8928 231.832 51.6164C231.89 51.5045 231.927 51.3799 231.941 51.2506C231.954 51.1213 231.944 50.9902 231.911 50.8655C231.879 50.7409 231.824 50.6256 231.75 50.5269C231.677 50.4282 231.586 50.3484 231.484 50.2925C230.848 49.9509 230.046 49.5299 229.747 49.4223C229.228 49.2305 229.577 46.7369 229.577 46.7369L230.593 46.1522L233.185 46.3486L235.263 44.0469L231.456 40.599L227.653 37.9137L221.603 36.3839C221.603 36.3839 218.177 37.5207 217.63 37.7219C213.523 39.2236 208.98 34.7558 204.829 35.6166C204.829 35.6166 199.297 36.7675 198.778 36.7675C198.624 36.7409 198.481 36.6553 198.373 36.5242C197.326 35.4706 195.961 34.9346 194.575 35.0318C193.026 35.221 191.465 35.2131 189.918 35.0084C186.536 34.4049 183.466 32.5055 180.51 30.6857C179.016 29.75 175.881 27.6635 174.03 28.3465C173.516 28.5383 173.516 29.8763 173.516 29.8763L175.764 32.3699L175.245 34.0915C174.789 34.1956 174.32 34.1956 173.864 34.0915C173.245 33.8669 167.19 33.6564 168.924 36.2061C168.571 35.6522 168.178 35.1341 167.749 34.6576C167.365 34.3348 166.498 34.9757 166.498 34.9757L165.728 36.2575L167.348 37.7499L167.636 38.8166L166.964 39.2423L165.745 37.7312C165.635 37.6002 160.075 38.2224 159.103 38.1569L156.313 40.075L155.349 40.1826C155.349 40.1826 154.292 41.4739 154 41.4739C153.709 41.4739 151.976 41.6844 151.692 41.6844C151.409 41.6844 150.635 40.8423 150.433 40.5382C150.23 40.2341 150.53 39.5791 150.53 39.5791L153.705 40.7534C153.988 40.3702 154.216 39.9376 154.381 39.4715C154.454 39.2294 154.446 38.9644 154.359 38.7288C154.271 38.4932 154.11 38.3041 153.907 38.199C153.616 38.0914 152.077 37.8762 151.692 37.6657C151.307 37.4552 150.287 36.0143 150.25 35.9581C149.845 35.4108 143.949 36.2342 143.512 36.5991C143.074 36.964 140.624 37.7733 140.239 37.8762C139.855 37.9792 138.798 40.3324 138.7 40.6505C138.603 40.9686 138.024 41.2914 137.546 41.399C136.49 41.8054 135.46 42.2995 134.464 42.8773C134.177 43.0926 134.659 43.944 134.659 44.3697C134.759 44.9243 134.919 45.4619 135.137 45.9697L136.003 46.503L137.162 45.3288L137.737 45.4364C139.421 47.0972 140.515 48.1217 142.074 45.4832C141.005 45.0528 140.976 43.2235 141.77 42.3253C142.564 41.4271 143.795 41.2119 144.909 41.0481C143.921 41.6236 143.694 43.2516 144.334 44.2715C144.974 45.2914 146.225 45.675 147.318 45.4364C147.086 46.0241 146.689 46.5042 146.192 46.7988C145.694 47.0935 145.125 47.1854 144.577 47.0598C144.739 47.9954 145.273 48.5755 144.755 49.3989C144.323 49.7146 143.875 50.0004 143.414 50.255L142.455 49.0527L141.588 50.227C141.588 50.227 139.093 49.8948 138.798 49.8012C138.577 49.7318 138.35 49.6957 138.121 49.6936C138.121 49.6936 138.219 48.2901 138.219 47.8785C138.219 47.4668 137.162 48.2013 136.773 48.3089C136.384 48.4165 136.967 50.4375 136.967 50.4375L136.198 50.3346C135.845 50.2831 135.481 50.11 135.137 50.0211C135.61 50.1428 133.545 52.0702 132.751 52.0234C132.662 51.8129 132.565 51.3077 132.217 51.2001C131.642 51.0176 131.245 52.8936 130.398 53.3942C130.337 53.4268 130.286 53.4789 130.249 53.5444C130.213 53.6099 130.194 53.686 130.194 53.7638C130.194 53.8415 130.213 53.9177 130.249 53.9832C130.286 54.0487 130.337 54.1008 130.398 54.1334L130.888 54.386C130.394 54.7755 129.88 55.1316 129.35 55.4526L130.504 56.3041L131.399 57.4783C131.399 57.4783 130.722 58.6526 130.532 58.9707C130.34 59.1834 130.113 59.3496 129.865 59.4597C129.617 59.5698 129.352 59.6214 129.086 59.6116C128.702 59.504 128.127 58.4374 127.835 58.1193C127.543 57.8011 126.102 58.3298 126.102 58.3298C126.102 58.3298 125.429 60.6689 125.239 61.3192C125.049 61.9695 125.527 64.6221 125.527 64.6221C125.527 64.6221 126.49 64.7297 126.778 64.5192C127.066 64.3087 127.932 65.1554 128.22 65.263C128.927 65.2889 129.635 65.253 130.338 65.1554L130.994 63.8783L132.921 60.5707L133.306 59.635L134.234 60.2385C134.352 60.3182 134.486 60.3618 134.623 60.3654C134.76 60.3689 134.895 60.3323 135.017 60.2589C135.138 60.1856 135.241 60.0778 135.317 59.9458C135.392 59.8138 135.438 59.6618 135.449 59.504C135.449 59.0783 136.603 59.3964 136.603 59.3964L137.567 59.6116L138.911 61.745H139.972L140.839 62.5964L140.494 63.4245C140.431 63.5781 140.421 63.7545 140.468 63.9161C140.515 64.0777 140.614 64.2118 140.746 64.29L140.932 64.4116L141.483 64.29C141.593 64.2681 141.692 64.1982 141.759 64.0946C141.826 63.991 141.856 63.8617 141.843 63.7332L141.701 62.4888L142.333 62.9941C142.426 63.065 142.536 63.1005 142.647 63.0955C142.758 63.0905 142.865 63.0452 142.953 62.966C142.988 62.934 143.017 62.8939 143.038 62.8482C143.059 62.8025 143.071 62.7522 143.074 62.7006C143.077 62.649 143.071 62.5973 143.056 62.5487C143.04 62.5001 143.016 62.4558 142.985 62.4186L141.689 60.8982C141.306 60.9515 140.918 60.9515 140.535 60.8982C140.247 60.7906 139.863 59.6163 139.381 58.9754C139.242 58.7814 139.158 58.5425 139.14 58.2914C139.123 58.0402 139.173 57.789 139.284 57.5719L140.535 57.89L142.078 58.4234L143.143 60.8935L145.451 63.1297L146.261 64.3601C146.317 64.4459 146.394 64.5103 146.482 64.545C146.57 64.5798 146.665 64.5833 146.755 64.5551C146.845 64.5269 146.925 64.4683 146.986 64.3869C147.047 64.3054 147.085 64.2049 147.096 64.0981L147.282 61.5298C147.282 61.5298 150.651 61.745 150.927 61.745C151.202 61.745 152.466 62.8116 152.466 62.8116C152.059 62.9664 151.64 63.073 151.214 63.1297C150.614 63.2446 150.031 63.4606 149.485 63.7707C149.08 63.9859 149.89 64.8373 149.89 64.8373C149.89 64.8373 153.065 65.0525 153.352 64.9449C153.83 64.8406 154.313 64.7688 154.798 64.7297C154.798 64.7297 155.568 63.0221 155.47 62.704C155.373 62.3859 156.507 61.4221 156.507 61.4221L156.592 61.4596V65.132L156.074 66.8583L154.859 69.7308L155.179 70.5027L154.219 71.1016C154.219 71.1016 149.999 70.1098 149.623 69.9647L147.266 69.1507C146.933 69.0317 146.574 69.0619 146.261 69.2354C145.947 69.4088 145.701 69.7128 145.573 70.0864C145.516 70.265 145.452 70.4399 145.378 70.6103C143.431 70.1098 141.446 69.5811 139.523 68.9729C139.523 68.9729 138.502 68.6922 138.628 68.1262C138.753 67.5601 138.628 65.2911 138.628 65.2911C138.628 65.2911 137.733 64.5847 137.222 64.5847C136.712 64.5847 136.198 64.5847 135.817 65.1508C135.436 65.7168 134.412 65.7168 134.412 65.7168C134.412 65.7168 130.058 66.2689 129.678 66.2689C129.114 66.3623 128.558 66.5046 128.013 66.6946L126.993 65.7028C126.993 65.7028 126.098 66.5543 125.968 66.9753C125.659 67.8901 125.403 68.8279 125.203 69.7823C125.203 70.8022 122.809 72.2477 122.497 73.6512C122.234 74.8161 122.092 76.1027 121.315 76.9261C121.011 77.2582 120.63 77.4968 120.351 77.8617C119.736 78.6477 120.015 80.781 120.217 81.6792C120.32 82.9981 120.362 84.3224 120.343 85.6464C120.343 86.0721 119.707 86.2125 119.833 87.0499C119.958 87.8873 120.217 88.1821 121.368 90.1657C122.518 92.1493 124.433 93.9925 124.692 94.4136C124.952 94.8346 126.098 95.4054 126.478 95.4054C126.859 95.4054 130.042 93.5761 130.569 93.5668C136.55 93.4592 139.336 94.0346 139.134 101.356C139.134 101.356 141.564 105.889 141.693 106.596C141.823 107.302 142.074 108.72 141.948 109.286C141.823 109.852 141.179 112.827 141.179 112.827C141.179 112.827 139.774 114.105 139.903 114.951C140.365 116.94 140.963 118.883 141.693 120.762C142.074 121.468 143.354 124.869 143.354 124.869C143.354 124.869 143.759 127.845 143.864 128.27C143.969 128.696 145.654 130.96 145.654 130.96C145.654 130.96 147.829 129.557 148.209 129.683C148.59 129.81 151.275 129.543 151.279 129.543C151.89 129.477 153.587 125.548 154.134 124.837C154.903 123.845 158.398 121.875 158.564 120.757C158.824 119.012 157.536 113.679 160.865 113.679C161.249 113.679 162.015 107.728 162.015 107.728C161.569 105.66 159.856 101.819 161.436 100.13C162.796 98.6708 164.416 97.4217 165.68 95.8545C166.943 94.2872 166.51 93.0475 167.385 91.5832C167.64 91.1575 169.045 89.3142 169.045 89.3142C169.05 88.7448 169.008 88.1762 168.92 87.616C168.79 87.0499 168.535 87.3306 168.154 87.4756C167.774 87.6207 165.724 88.4674 165.724 88.4674L163.679 88.6078C163.679 88.6078 160.994 87.0499 160.865 86.1985C160.735 85.347 159.459 83.0827 159.459 83.0827L158.564 80.9588L156.264 75.4337L155.369 73.7355L156.313 73.1787L159.873 81.7447L161.776 82.8956L162.638 85.1926C162.638 85.1926 163.853 87.1107 164.886 87.1107L167.482 86.9189L167.652 84.0464L170.94 83.6628L174.585 80.9775C174.334 79.6816 173.504 78.1143 173.403 76.898C173.326 75.9904 175.853 74.7647 176.663 74.4653C177.181 74.2735 181.676 78.4886 181.676 78.4886L183.406 82.1283C183.406 82.1283 185.305 88.4534 185.305 89.0288C185.305 89.6043 186.52 90.175 186.52 90.175L190.165 95.3492C190.165 95.3492 191.72 95.7328 192.238 95.541C192.756 95.3492 192.586 94.3902 192.586 94.3902L191.894 92.6685L190.509 91.3259C190.509 91.3259 190.509 88.0511 190.339 87.3025C190.169 86.554 190.683 85.9599 190.683 85.3844C190.683 84.809 193.797 82.5119 193.967 81.9365C194.137 81.3611 196.215 80.7903 196.215 80.7903L199.329 82.1283L201.403 85.7681L202.788 87.1107L203.306 90.9423L203.132 92.0931L202.136 93.4171C202.039 93.5445 201.965 93.6932 201.919 93.8541C201.873 94.0151 201.856 94.1851 201.868 94.3541C201.88 94.523 201.921 94.6874 201.99 94.8375C202.058 94.9876 202.152 95.1202 202.265 95.2276L202.788 95.7328C204.513 99.3164 206.027 102.704 208.32 105.889L212.799 109.389C213.204 109.698 215.16 108.809 215.67 108.757L216.245 108.715Z" fill="#D4E0EF"/>
<path opacity="0.53" d="M129.192 48.6643C129.123 48.7214 129.066 48.7955 129.024 48.8813C128.983 48.967 128.959 49.0623 128.953 49.1602L128.876 50.6666L129.07 50.7695C129.157 50.819 129.253 50.8448 129.35 50.8448C129.447 50.8448 129.542 50.819 129.629 50.7695C130.54 50.2268 131.464 49.7497 132.112 48.7298C132.195 48.5943 132.23 48.4266 132.209 48.262C132.174 47.9703 132.154 47.6767 132.148 47.3824C132.148 46.7415 130.99 45.8901 130.605 45.6749C130.206 45.4005 129.828 45.0875 129.475 44.7392C129.398 44.6637 129.338 44.5673 129.301 44.4585L129.232 44.2527C129.198 44.1548 129.146 44.0668 129.079 43.9946C129.013 43.9225 128.933 43.8681 128.846 43.8351C128.76 43.8022 128.668 43.7915 128.577 43.8038C128.486 43.8161 128.399 43.8512 128.321 43.9065L128.264 43.9486C128.162 44.0202 128.081 44.1262 128.032 44.2523C127.982 44.3785 127.968 44.5189 127.989 44.655L128.345 46.7088C128.378 46.8791 128.465 47.0293 128.588 47.1298L129.176 47.5976C129.248 47.6586 129.307 47.738 129.348 47.8297C129.389 47.9215 129.412 48.023 129.413 48.1263C129.415 48.2297 129.396 48.332 129.357 48.4254C129.319 48.5187 129.262 48.6005 129.192 48.6643V48.6643Z" fill="#D4E0EF"/>
<path opacity="0.53" d="M123.101 50.54C123.084 50.7194 123.126 50.8994 123.218 51.0453C123.449 51.4055 123.89 52.0605 124.052 52.0605C124.214 52.0605 124.927 52.1026 125.364 52.126C125.469 52.1335 125.574 52.1125 125.67 52.0645C125.767 52.0166 125.852 51.943 125.919 51.8499L127.081 50.2546C127.145 50.1703 127.19 50.0702 127.214 49.9622C127.238 49.8543 127.239 49.7414 127.219 49.6324L127.017 48.5798C126.995 48.4595 126.946 48.348 126.875 48.257L126.425 47.6535C126.357 47.5648 126.272 47.4948 126.177 47.4487C126.083 47.4026 125.98 47.3814 125.877 47.3868C125.775 47.3922 125.674 47.4239 125.583 47.4798C125.492 47.5356 125.414 47.6142 125.352 47.7096L125.142 48.0558C125.066 48.1716 124.966 48.262 124.85 48.3178L124.514 48.4909L124.461 48.519L123.526 49.0663C123.429 49.1216 123.346 49.2042 123.285 49.3065C123.223 49.4087 123.185 49.5273 123.173 49.6511L123.101 50.54Z" fill="#D4E0EF"/>
<path d="M223.381 99.0589C223.312 98.6706 222.611 98.2823 222.611 98.2823L220.234 96.818C220.144 96.7679 220.073 96.6813 220.036 96.5747C219.841 96.0507 219.246 94.4227 219.185 94.0999C219.124 93.7771 217.97 92.8835 217.565 92.5794C217.476 92.5107 217.368 92.4809 217.261 92.4952C216.909 92.5373 216.103 92.6449 215.889 92.7057C215.609 92.7853 214.977 94.1794 214.909 94.5771C214.84 94.9747 214.001 96.1303 213.86 96.3595C213.718 96.5887 212.24 96.5934 211.835 96.6683C211.558 96.7609 211.317 96.9587 211.15 97.2297C211.093 97.312 211.062 97.4142 211.061 97.5197L211.001 100.121C210.998 100.182 211.006 100.244 211.024 100.301C211.042 100.359 211.07 100.412 211.106 100.458C211.539 101.019 213.131 103.045 213.467 103.171H213.552L217.444 104.518C217.538 104.551 217.639 104.549 217.733 104.511C217.826 104.473 217.906 104.402 217.962 104.308V104.308C218 104.244 218.049 104.191 218.107 104.151C218.164 104.112 218.228 104.087 218.295 104.078C218.361 104.07 218.428 104.078 218.492 104.102C218.555 104.127 218.614 104.166 218.663 104.219L219.181 104.794C219.222 104.84 219.27 104.876 219.323 104.902C219.651 105.052 220.89 105.618 221.129 105.482C221.402 105.285 221.656 105.054 221.886 104.794C221.933 104.744 221.97 104.683 221.994 104.614C222.018 104.545 222.028 104.471 222.024 104.397L221.907 102.526C221.902 102.443 221.916 102.361 221.947 102.287L222.441 101.052L222.482 100.972C222.635 100.729 223.441 99.4098 223.381 99.0589Z" fill="#D4E0EF"/>
<path d="M223.854 92.4673C223.915 92.2795 223.919 92.0736 223.866 91.8827C223.813 91.6918 223.706 91.5269 223.563 91.4147C223.191 91.0957 222.803 90.8036 222.4 90.5398C222.19 90.465 222.4 89.6042 222.331 89.3796C222.394 88.6065 222.56 87.8492 222.821 87.134C222.959 86.9001 222.542 85.9691 222.121 85.6604C221.7 85.3516 221.072 84.0323 220.793 83.6487C220.513 83.2651 219.954 81.3984 219.813 81.1692C219.671 80.94 218.905 81.244 218.695 81.3236C218.484 81.4031 218.415 82.3294 218.415 82.3294C218.415 82.3294 218.626 83.9575 218.415 83.9575C218.205 83.9575 218.01 83.5692 218.01 83.5692C217.875 83.8817 217.803 84.2256 217.8 84.575C217.84 84.8345 217.862 85.0974 217.865 85.361C217.868 85.5601 217.931 85.7516 218.043 85.9036C218.411 86.4136 219.258 87.5738 219.408 87.775C219.557 87.9761 220.035 89.5574 220.104 89.7913C220.174 90.3714 220.214 90.9556 220.226 91.541C220.235 91.6946 220.276 91.8433 220.347 91.9739C220.418 92.1045 220.515 92.2129 220.631 92.2895L222.271 93.3515L222.38 93.4357C222.481 93.5223 222.598 93.5819 222.722 93.6103C222.845 93.6386 222.973 93.635 223.095 93.5997C223.218 93.5644 223.332 93.4982 223.429 93.406C223.527 93.3137 223.606 93.1977 223.66 93.0661C223.733 92.8416 223.793 92.6451 223.854 92.4673Z" fill="#D4E0EF"/>
<path d="M238.94 106.034L238.535 103.962C238.515 103.863 238.472 103.771 238.41 103.698C238.349 103.625 238.272 103.572 238.187 103.545C237.822 103.424 237.219 103.227 237.073 103.171C236.927 103.115 236.87 102.848 236.83 102.638C236.815 102.56 236.785 102.486 236.743 102.422C236.701 102.359 236.648 102.306 236.587 102.268L235.429 101.534C235.36 101.492 235.284 101.468 235.206 101.463L234.477 101.426L234.558 101.08L233.578 100.771L232.553 100.486C232.49 100.474 232.426 100.474 232.363 100.486L231.128 100.682C231.037 100.696 230.945 100.682 230.861 100.64C230.549 100.49 229.775 100.097 229.646 99.8495C229.516 99.6015 228.026 98.6097 227.9 98.301C227.775 97.9922 226.92 98.0717 226.641 98.2261C226.361 98.3805 226.71 99.0776 226.71 99.3863C226.71 99.6951 227.548 100.86 227.827 101.089C228.279 101.457 228.701 101.872 229.087 102.329C229.306 102.633 229.868 103.555 230.103 103.938C230.172 104.052 230.274 104.132 230.391 104.163C230.951 104.334 231.519 104.472 232.092 104.575C232.294 104.575 232.991 105.403 233.375 105.88L233.351 106.128L234.262 107.063L234.489 107.274C234.549 107.329 234.619 107.369 234.694 107.389C234.769 107.409 234.847 107.41 234.923 107.391L235.178 107.325C235.295 107.297 235.399 107.22 235.47 107.109C235.541 106.997 235.574 106.86 235.562 106.722C235.547 106.546 235.509 106.374 235.449 106.212C235.311 105.903 236.077 105.903 236.077 105.903L236.36 105.941C236.446 105.949 236.528 105.982 236.599 106.038C236.67 106.094 236.727 106.17 236.765 106.259L237.231 107.386C237.286 107.512 237.378 107.612 237.491 107.666C237.604 107.72 237.73 107.725 237.846 107.681V107.681C237.913 107.656 237.983 107.647 238.052 107.653C238.122 107.66 238.189 107.682 238.251 107.718L239.061 108.186L239.126 108.233L240.151 109.084C240.211 109.136 240.28 109.172 240.354 109.189C240.428 109.206 240.504 109.204 240.577 109.183C240.649 109.162 240.717 109.123 240.775 109.068C240.833 109.013 240.88 108.943 240.912 108.865C240.945 108.778 240.961 108.683 240.957 108.589C240.946 108.458 240.894 108.336 240.811 108.247L239.061 106.31C238.998 106.234 238.956 106.138 238.94 106.034Z" fill="#D4E0EF"/>
<path opacity="0.53" d="M241.414 102.619C241.134 102.699 240.855 103.63 240.855 103.63C240.855 103.63 240.158 103.859 239.879 103.938C239.6 104.018 240.644 105.178 240.644 105.178L241.624 104.71C241.914 104.541 242.22 104.411 242.536 104.322C242.742 104.322 242.884 103.625 243.022 103.386C243.159 103.148 242.617 102.226 242.617 102.226C242.617 102.226 241.693 102.544 241.414 102.619Z" fill="#D4E0EF"/>
<path d="M167.846 110.072C167.644 109.847 167.105 110.221 167.105 110.221L166.295 111.564C165.921 112.26 165.515 112.933 165.081 113.58C164.809 113.875 164.676 114.048 164.473 113.875C163.994 113.679 163.47 113.679 162.991 113.875C162.319 114.1 162.991 115.442 163.129 115.667C163.266 115.892 163.129 117.159 163.129 117.159L162.452 119.845L162.116 121.038L163.736 123.054C163.975 122.964 164.202 122.838 164.412 122.68C164.641 122.483 164.825 122.226 164.951 121.931C165.149 121.562 165.356 120.738 165.554 120.294C165.753 119.849 165.757 118.128 165.826 117.234C165.895 116.341 166.765 115.831 166.968 115.592C167.17 115.354 168.381 114.1 168.519 113.721C168.698 112.918 168.765 112.087 168.717 111.26C168.656 110.596 168.053 110.296 167.846 110.072Z" fill="#D4E0EF"/>
<path d="M238.628 120.12C238.284 119.312 238.195 118.39 238.377 117.514C238.411 117.4 238.426 117.28 238.421 117.159C238.366 116.941 238.242 116.756 238.073 116.64C237.461 116.102 236.801 115.652 236.153 115.175C235.921 115.007 235.738 114.763 235.627 114.473C235.516 114.184 235.482 113.863 235.53 113.552C235.574 113.266 235.623 112.976 235.655 112.752C235.658 111.775 235.457 110.812 235.068 109.945C234.813 109.477 234.501 109.674 234.384 110.151C234.316 110.501 234.302 110.862 234.343 111.217C234.371 111.584 234.286 111.95 234.104 112.251L233.606 113.079L232.995 114.057C232.873 114.244 232.72 114.401 232.545 114.518C232.369 114.635 232.175 114.71 231.974 114.737C231.773 114.765 231.569 114.745 231.375 114.679C231.181 114.612 231 114.501 230.844 114.352C230.585 114.074 230.302 113.83 229.998 113.622C229.712 113.407 229.505 113.079 229.415 112.7C229.324 112.321 229.358 111.917 229.508 111.564C229.621 111.245 230.192 110.81 230.289 110.268C230.309 110.171 230.308 110.069 230.286 109.973C230.265 109.876 230.223 109.787 230.166 109.713C230.108 109.639 230.036 109.581 229.955 109.546C229.875 109.511 229.788 109.498 229.702 109.51H228.24C227.75 109.51 226.677 109.617 226.385 109.837C226.163 110.001 224.786 111.241 224.158 111.821C223.952 112.009 223.706 112.13 223.445 112.172C222.23 112.368 221.238 112.34 220.489 113.575C219.922 114.511 219.606 116.036 218.464 116.331C218.149 116.431 217.822 116.467 217.496 116.438C216.856 116.298 216.148 117.5 215.621 117.842C215.102 118.171 214.533 118.384 213.945 118.469C213.455 118.539 212.661 118.286 212.325 118.782C212.204 118.975 212.122 119.197 212.086 119.431C212.049 119.665 212.06 119.906 212.115 120.135C212.171 120.364 212.271 120.575 212.407 120.754C212.544 120.932 212.714 121.072 212.904 121.163L213.058 121.252C213.303 121.443 213.578 121.574 213.868 121.641C214.163 121.641 213.868 122.071 213.463 122.399C212.373 123.306 213.171 124.738 213.135 125.907C213.102 126.974 212.41 127.344 211.802 128.017C211.422 128.438 210.433 129.491 211.033 130.122C212.248 131.39 215.508 129.729 216.763 129.187C216.893 129.13 217.03 129.094 217.168 129.079C219.448 128.901 222.194 127.231 224.275 128.77C224.826 129.173 226.134 129.313 226.422 129.889C226.527 130.157 226.59 130.446 226.608 130.74C226.678 131.263 226.803 131.773 226.981 132.26C227.17 132.789 227.484 133.244 227.887 133.576C228.291 133.907 228.767 134.099 229.261 134.132C230.524 134.202 231.286 133.131 232.096 132.232C232.602 131.666 233.416 131.629 234.076 131.46C235.61 131.015 236.972 129.993 237.947 128.555C238.535 127.69 239.118 125.528 239.413 124.986C239.709 124.443 239.705 122.824 239.608 122.282C239.466 121.505 238.895 120.878 238.591 120.167L238.628 120.12Z" fill="#D4E0EF"/>
<path d="M250.186 84.1346C249.939 83.6668 249.538 84.2563 249.538 83.6668C249.562 83.3016 249.479 82.9377 249.303 82.6333C249.127 82.3288 248.867 82.1014 248.566 81.9873L248.351 83.6668L247.594 84.5136L247.485 85.5896L248.456 85.4726L248.027 87.6247C248.027 87.6247 247.161 87.9849 246.731 88.0925C246.302 88.2001 246.189 88.9299 246.189 88.9299L245.431 91.3252L245.326 92.6445C245.326 92.6445 246.731 92.5228 247.055 92.5228C247.37 92.4456 247.665 92.2855 247.918 92.055C248.031 91.5054 248.068 90.9385 248.027 90.3755C247.918 89.7767 248.89 90.0153 249.108 89.6597C249.399 88.9908 249.546 88.2512 249.538 87.503C249.536 87.2677 249.598 87.0376 249.714 86.8441C249.83 86.6507 249.994 86.5033 250.186 86.4223C250.374 86.0804 250.474 85.6836 250.474 85.2785C250.474 84.8734 250.374 84.4766 250.186 84.1346Z" fill="#D4E0EF"/>
</g>
</g>
<defs>
<filter id="filter0_d_220_1538" x="-37.152" y="-34.6752" width="354.601" height="241.304" filterUnits="userSpaceOnUse" color-interpolation-filters="sRGB">
<feFlood flood-opacity="0" result="BackgroundImageFix"/>
<feColorMatrix in="SourceAlpha" type="matrix" values="0 0 0 0 0 0 0 0 0 0 0 0 0 0 0 0 0 0 127 0" result="hardAlpha"/>
<feOffset dy="2.4768"/>
<feGaussianBlur stdDeviation="18.576"/>
<feColorMatrix type="matrix" values="0 0 0 0 0 0 0 0 0 0 0 0 0 0 0 0 0 0 0.2 0"/>
<feBlend mode="normal" in2="BackgroundImageFix" result="effect1_dropShadow_220_1538"/>
<feBlend mode="normal" in="SourceGraphic" in2="effect1_dropShadow_220_1538" result="shape"/>
</filter>
<clipPath id="clip0_220_1538">
<rect width="280" height="167" fill="white"/>
</clipPath>
</defs>
</svg>
