<svg width="30" height="30" viewBox="0 0 30 30" fill="none" xmlns="http://www.w3.org/2000/svg">
<circle cx="14.6053" cy="14.6053" r="14.6053" fill="#8226F1"/>
<path d="M20.0822 14.3009C20.0843 15.1041 19.8967 15.8964 19.5345 16.6134C19.1052 17.4725 18.4451 18.1951 17.6282 18.7003C16.8114 19.2054 15.87 19.4732 14.9095 19.4736C14.1063 19.4757 13.314 19.288 12.597 18.9259L9.1283 20.0821L10.2845 16.6134C9.92242 15.8964 9.73475 15.1041 9.73685 14.3009C9.73722 13.3404 10.005 12.3991 10.5101 11.5822C11.0153 10.7653 11.7379 10.1053 12.597 9.67589C13.314 9.31376 14.1063 9.1261 14.9095 9.12819H15.2138C16.4823 9.19817 17.6803 9.73356 18.5786 10.6318C19.4769 11.5301 20.0123 12.7282 20.0822 13.9966V14.3009Z" stroke="white" stroke-width="1.66667" stroke-linecap="round" stroke-linejoin="round"/>
</svg>
