<svg width="18" height="18" viewBox="0 0 18 18" fill="none" xmlns="http://www.w3.org/2000/svg">
<g clip-path="url(#clip0_87_1641)">
<path d="M8.86035 -0.0947266C13.3986 -0.0947266 17.0779 3.58391 17.0781 8.12207C17.0781 12.6604 13.3987 16.3398 8.86035 16.3398C4.32225 16.3395 0.643555 12.6602 0.643555 8.12207C0.643796 3.5841 4.3224 -0.0944148 8.86035 -0.0947266ZM8.86035 1.57129C5.24287 1.5716 2.30981 4.50458 2.30957 8.12207C2.30957 11.7398 5.24272 14.6725 8.86035 14.6729C12.4782 14.6729 15.4111 11.74 15.4111 8.12207C15.4109 4.50438 12.4781 1.57129 8.86035 1.57129ZM13.2725 6.60156L8.99805 11.0322L8.37402 11.6787L7.66406 11.127L4.55566 8.71094L5.16895 7.9209L5.78223 7.13184L8.18164 8.99609L11.833 5.21289L13.2725 6.60156Z" fill="#7415E9"/>
</g>
<defs>
<clipPath id="clip0_87_1641">
<rect width="17.7219" height="17.7219" fill="white"/>
</clipPath>
</defs>
</svg>
